<svg id="Gruppe_3987" data-name="Gruppe 3987" xmlns="http://www.w3.org/2000/svg" width="275" height="191.332" viewBox="0 0 275 191.332">
  <ellipse cx="54.792" cy="4.161" rx="54.792" ry="4.161" transform="translate(0 183.009)" fill="#e6e6e6"/>
  <path  d="M324.272,241.607c9.535-4.056,21.412-1.486,33.011.3.108-2.16,1.416-4.788.046-6.3-1.665-1.831-1.512-3.754-.51-5.689,2.562-4.947-1.109-10.211-4.815-14.587a8.208,8.208,0,0,0-6.851-2.875l-6.865.49a8.222,8.222,0,0,0-7.3,5.877h0c-1.639,2.23-2.517,4.453-1.964,6.665-2.455,1.678-2.868,3.7-1.765,5.987a3.442,3.442,0,0,1-.043,4.2,19.383,19.383,0,0,0-2.882,5.724Z" transform="translate(-282.39 -199.154)" fill="#2f2e41"/>
  <path  d="M599.361,627.256H405.016a6.516,6.516,0,0,1-6.516-6.516h0q105.675-12.281,207.377,0h0A6.516,6.516,0,0,1,599.361,627.256Z" transform="translate(-330.877 -461.852)" fill="#2f2e41"/>
  <path  d="M605.877,372.756,398.5,372.372l24.034-40.44.115-.192V242.614a8.237,8.237,0,0,1,8.238-8.238H572.34a8.237,8.237,0,0,1,8.238,8.238v89.739Z" transform="translate(-330.877 -213.485)" fill="#3f3d56"/>
  <path  d="M486.3,250.957a2.686,2.686,0,0,0-2.683,2.683V334.9a2.686,2.686,0,0,0,2.683,2.683H629.275a2.687,2.687,0,0,0,2.683-2.683V253.64a2.686,2.686,0,0,0-2.683-2.683Z" transform="translate(-386.474 -224.316)" fill="#fff"/>
  <path  d="M476.962,531.718a1.153,1.153,0,0,0-1.045.669l-7.406,16.1a1.15,1.15,0,0,0,1.045,1.631H625.294a1.15,1.15,0,0,0,1.028-1.664l-8.05-16.1a1.144,1.144,0,0,0-1.028-.636Z" transform="translate(-376.541 -407.714)" fill="#2f2e41"/>
  <circle cx="1.725" cy="1.725" r="1.725" transform="translate(169.012 21.849)" fill="#fff"/>
  <path  d="M646.035,593.619a1.152,1.152,0,0,0-1.11.851l-1.858,6.9a1.15,1.15,0,0,0,1.11,1.449h35.328a1.15,1.15,0,0,0,1.086-1.526l-2.388-6.9a1.151,1.151,0,0,0-1.087-.774Z" transform="translate(-490.606 -448.148)" fill="#2f2e41"/>
  <path  d="M422.35,337.135v1.533H264.306l.119-.191v-1.342Z" transform="translate(-172.649 -220.222)" fill="#2f2e41"/>
  <circle cx="26.833" cy="26.833" r="26.833" transform="translate(218.46 0)" fill="#2ca5b4"/>
  <path  d="M898.124,254.175H875.891a1.535,1.535,0,0,1-1.533-1.533V239.226a1.535,1.535,0,0,1,1.533-1.533h22.233a1.535,1.535,0,0,1,1.533,1.533v13.416a1.535,1.535,0,0,1-1.533,1.533Zm-22.233-14.95v13.416h22.234V239.226Z" transform="translate(-641.715 -215.651)" fill="#fff"/>
  <path  d="M904.738,216.121h-13.8v-6.133c0-4.442,2.9-7.666,6.9-7.666s6.9,3.224,6.9,7.666Zm-12.266-1.533H903.2v-4.6c0-3.611-2.207-6.133-5.366-6.133s-5.367,2.522-5.367,6.133Z" transform="translate(-652.545 -192.546)" fill="#fff"/>
  <circle cx="1.533" cy="1.533" r="1.533" transform="translate(243.759 28.366)" fill="#fff"/>
  <path  d="M644.825,361.944h-110.5a2.049,2.049,0,0,1-2.046-2.046v-27.41a2.049,2.049,0,0,1,2.046-2.046h110.5a2.049,2.049,0,0,1,2.046,2.046V359.9A2.049,2.049,0,0,1,644.825,361.944Zm-110.5-30.684a1.229,1.229,0,0,0-1.228,1.228V359.9a1.229,1.229,0,0,0,1.228,1.228h110.5a1.229,1.229,0,0,0,1.228-1.228v-27.41a1.229,1.229,0,0,0-1.228-1.228Z" transform="translate(-418.264 -276.236)" fill="#e6e6e6"/>
  <circle  cx="8.335" cy="8.335" r="8.335" transform="translate(124.896 60.569)" fill="#e6e6e6"/>
  <path  d="M640.586,356.805a1.389,1.389,0,1,0,0,2.778h65.493a1.389,1.389,0,0,0,0-2.778Z" transform="translate(-488.104 -293.458)" fill="#e6e6e6"/>
  <path  d="M640.586,380.842a1.389,1.389,0,1,0,0,2.778h28.182a1.389,1.389,0,0,0,0-2.778Z" transform="translate(-488.104 -309.159)" fill="#e6e6e6"/>
  <path  d="M428.059,360.03l-20.427,10.86-.259-9.05a60.5,60.5,0,0,0,18.875-6.206l2.136-5.278a3.578,3.578,0,0,1,6.081-.929h0a3.578,3.578,0,0,1-.315,4.879Z" transform="translate(-336.673 -287.785)" fill="#ffb8b8"/>
  <path  d="M322.832,537.471h0a4.014,4.014,0,0,1,.51-3.247l4.487-6.886A7.842,7.842,0,0,1,338,524.654h0c-1.886,3.21-1.623,6.026.651,8.473a40.792,40.792,0,0,0-9.688,6.6,4.014,4.014,0,0,1-6.133-2.26Z" transform="translate(-281.357 -402.526)" fill="#2f2e41"/>
  <path  d="M398.792,480.48h0a7.7,7.7,0,0,1-6.544,3.738l-29.81.226-1.293-7.5,13.187-3.878-11.118-8.533,12.153-14.221,22.073,20.573A7.7,7.7,0,0,1,398.792,480.48Z" transform="translate(-306.477 -354.538)" fill="#2f2e41"/>
  <path  d="M326.4,492.8H319.42c-6.268-42.966-12.649-86.052,6.206-102.133l22.237,3.62-2.844,18.875L332.607,427.38Z" transform="translate(-275.094 -315.575)" fill="#2f2e41"/>
  <path  d="M342.045,689.978h0a4.013,4.013,0,0,1-3.247-.509l-7.58-1.019a7.842,7.842,0,0,1-2.684-10.173h0c3.21,1.886,6.026,1.623,8.473-.652,1.729,3.491,4.578,3.278,7.3,6.22a4.014,4.014,0,0,1-2.26,6.133Z" transform="translate(-284.601 -503.022)" fill="#2f2e41"/>
  <path  d="M374.819,274.3l-12.928-3.1c2.147-4.4,2.324-9.286,1.293-14.48l8.791-.259A67.512,67.512,0,0,0,374.819,274.3Z" transform="translate(-306.964 -227.907)" fill="#ffb8b8"/>
  <path  d="M363.822,335.831c-9.411,6.413-16.061.219-21.136-9.337.705-5.847-.437-12.845-2.551-20.449a13.919,13.919,0,0,1,8.5-16.785h0l11.118,4.654c9.441,7.7,11.3,16.031,7.757,24.822Z" transform="translate(-292.413 -249.337)" fill="#2ca5b4"/>
  <path  d="M287.619,306.573,277.276,312l18.358,10.86,2.554,6.3a3.342,3.342,0,0,1-2.008,4.415h0a3.342,3.342,0,0,1-4.426-2.963l-.258-4.391-23.333-7.7a5.456,5.456,0,0,1-3.424-3.333h0a5.456,5.456,0,0,1,2.047-6.347l18.763-12.872Z" transform="translate(-243.292 -253.72)" fill="#ffb8b8"/>
  <path  d="M334.845,302.465c-4.314-1.89-8.236.163-13.187,1.81l-.776-13.7c4.916-2.62,9.6-3.327,13.963-1.293Z" transform="translate(-280.176 -248.579)" fill="#2ca5b4"/>
  <circle  cx="8.254" cy="8.254" r="8.254" transform="translate(51.575 18.827)" fill="#ffb8b8"/>
  <path  d="M369.88,235.272c-8.172.8-14.4-.536-18.38-4.342v-3.065h17.686Z" transform="translate(-300.176 -209.233)" fill="#2f2e41"/>
</svg>
